<svg width="112" height="157" viewBox="0 0 112 157" fill="none" xmlns="http://www.w3.org/2000/svg">
<path d="M26.6127 44.1119C25.2214 44.1119 24.083 45.2515 24.083 46.6442C24.083 48.0369 25.2214 49.1765 26.6127 49.1765H28.0547C29.446 49.1765 30.5844 48.0369 30.5844 46.6442C30.5844 45.2515 29.446 44.1119 28.0547 44.1119H26.6127Z" fill="#0A1931"/>
<path d="M35.9219 44.1119C34.5306 44.1119 33.3922 45.2515 33.3922 46.6442C33.3922 48.0369 34.5306 49.1765 35.9219 49.1765H37.3639C38.7552 49.1765 39.8936 48.0369 39.8936 46.6442C39.8936 45.2515 38.7552 44.1119 37.3639 44.1119H35.9219Z" fill="#0A1931"/>
<path d="M45.2566 44.1119C43.8653 44.1119 42.7269 45.2515 42.7269 46.6442C42.7269 48.0369 43.8653 49.1765 45.2566 49.1765H46.6986C48.0899 49.1765 49.2283 48.0369 49.2283 46.6442C49.2283 45.2515 48.0899 44.1119 46.6986 44.1119H45.2566Z" fill="#0A1931"/>
<path d="M86.3645 49.531V43.7575C86.3645 42.3647 85.2261 41.2252 83.8348 41.2252C82.4434 41.2252 81.3051 42.3647 81.3051 43.7575V49.531C81.3051 50.9238 82.4434 52.0633 83.8348 52.0633C85.2261 52.0633 86.3645 50.9491 86.3645 49.531Z" fill="#0A1931"/>
<path d="M12.5979 94.3266C12.5979 96.9348 14.6976 99.0366 17.3032 99.0366H94.3583C96.9639 99.0366 99.0636 96.9348 99.0636 94.3266V76.0184C99.0636 73.4101 96.9639 71.3083 94.3583 71.3083H17.3032C14.6976 71.3083 12.5979 73.4101 12.5979 76.0184V94.3266ZM17.6573 76.3729H94.0042V93.9721H17.6573V76.3729Z" fill="#0A1931"/>
<path d="M28.0547 82.6276H26.6127C25.2214 82.6276 24.083 83.7671 24.083 85.1599C24.083 86.5526 25.2214 87.6921 26.6127 87.6921H28.0547C29.446 87.6921 30.5844 86.5526 30.5844 85.1599C30.5844 83.7671 29.4713 82.6276 28.0547 82.6276Z" fill="#0A1931"/>
<path d="M37.3891 82.6276H35.9472C34.5559 82.6276 33.4175 83.7671 33.4175 85.1599C33.4175 86.5526 34.5559 87.6921 35.9472 87.6921H37.3891C38.7805 87.6921 39.9189 86.5526 39.9189 85.1599C39.9189 83.7671 38.7805 82.6276 37.3891 82.6276Z" fill="#0A1931"/>
<path d="M46.6986 82.6276H45.2566C43.8653 82.6276 42.7269 83.7671 42.7269 85.1599C42.7269 86.5526 43.8653 87.6921 45.2566 87.6921H46.6986C48.0899 87.6921 49.2283 86.5526 49.2283 85.1599C49.2283 83.7671 48.0899 82.6276 46.6986 82.6276Z" fill="#0A1931"/>
<path d="M83.8348 79.7408C82.4434 79.7408 81.3051 80.8803 81.3051 82.273V88.0466C81.3051 89.4393 82.4434 90.5788 83.8348 90.5788C85.2261 90.5788 86.3645 89.4393 86.3645 88.0466V82.273C86.3645 80.8803 85.2261 79.7408 83.8348 79.7408Z" fill="#0A1931"/>
<path d="M12.5979 132.842C12.5979 135.45 14.6976 137.552 17.3032 137.552H94.3583C96.9639 137.552 99.0636 135.45 99.0636 132.842V114.534C99.0636 111.926 96.9639 109.824 94.3583 109.824H17.3032C14.6976 109.824 12.5979 111.926 12.5979 114.534V132.842ZM17.6573 114.863H94.0042V132.462H17.6573V114.863Z" fill="#0A1931"/>
<path d="M28.0547 121.143H26.6127C25.2214 121.143 24.083 122.283 24.083 123.676C24.083 125.068 25.2214 126.208 26.6127 126.208H28.0547C29.446 126.208 30.5844 125.068 30.5844 123.676C30.5844 122.283 29.4713 121.143 28.0547 121.143Z" fill="#0A1931"/>
<path d="M37.3891 121.143H35.9472C34.5559 121.143 33.4175 122.283 33.4175 123.676C33.4175 125.068 34.5559 126.208 35.9472 126.208H37.3891C38.7805 126.208 39.9189 125.068 39.9189 123.676C39.9189 122.283 38.7805 121.143 37.3891 121.143Z" fill="#0A1931"/>
<path d="M46.6986 121.143H45.2566C43.8653 121.143 42.7269 122.283 42.7269 123.676C42.7269 125.068 43.8653 126.208 45.2566 126.208H46.6986C48.0899 126.208 49.2283 125.068 49.2283 123.676C49.2283 122.283 48.0899 121.143 46.6986 121.143Z" fill="#0A1931"/>
<path d="M83.8348 118.256C82.4434 118.256 81.3051 119.396 81.3051 120.789V126.562C81.3051 127.955 82.4434 129.095 83.8348 129.095C85.2261 129.095 86.3645 127.955 86.3645 126.562V120.789C86.3645 119.396 85.2261 118.256 83.8348 118.256Z" fill="#0A1931"/>
<path d="M20.8701 25.5505C25.4236 25.5505 29.1422 21.828 29.1422 17.27C29.1422 12.7119 25.4236 8.9895 20.8701 8.9895C16.3166 8.9895 12.5979 12.7119 12.5979 17.27C12.5979 21.828 16.3166 25.5505 20.8701 25.5505ZM20.8701 14.054C22.6409 14.054 24.0828 15.4974 24.0828 17.27C24.0828 19.0426 22.6409 20.486 20.8701 20.486C19.0993 20.486 17.6573 19.0426 17.6573 17.27C17.6573 15.4974 19.0993 14.054 20.8701 14.054Z" fill="#0A1931"/>
<path d="M104.503 0H7.1591C3.21274 0 0 3.21597 0 7.16629V132.285C0 133.678 1.13837 134.817 2.52972 134.817C3.92106 134.817 5.05943 133.678 5.05943 132.285V7.16629C5.05943 6.00145 5.99543 5.06452 7.1591 5.06452H104.528C105.692 5.06452 106.628 6.00145 106.628 7.16629V149.834C106.628 150.999 105.692 151.935 104.528 151.935H7.1591C5.99543 151.935 5.05943 150.999 5.05943 149.834V141.123C5.05943 139.73 3.92106 138.59 2.52972 138.59C1.13837 138.59 0 139.73 0 141.123V149.834C0 153.784 3.21274 157 7.1591 157H104.528C108.474 157 111.687 153.784 111.687 149.834V7.16629C111.662 3.21597 108.449 0 104.503 0Z" fill="#0A1931"/>
<path d="M12.5979 55.811C12.5979 58.4192 14.6976 60.5209 17.3032 60.5209H94.3583C96.9639 60.5209 99.0636 58.4192 99.0636 55.811V37.5027C99.0636 34.8945 96.9639 32.7927 94.3583 32.7927H75.942C74.5506 32.7927 73.4123 33.9322 73.4123 35.325C73.4123 36.7177 74.5506 37.8572 75.942 37.8572H94.0042V55.4564H17.6573V37.8572H67.088C68.4793 37.8572 69.6177 36.7177 69.6177 35.325C69.6177 33.9322 68.4793 32.7927 67.088 32.7927H17.3032C14.6976 32.7927 12.5979 34.8945 12.5979 37.5027V55.811Z" fill="#0A1931"/>
</svg>
