<svg width="199" height="158" viewBox="0 0 199 158" fill="none" xmlns="http://www.w3.org/2000/svg">
<path d="M187.246 2.06674e-06H11.145C9.68117 -0.000889307 8.23151 0.286562 6.87894 0.845919C5.52636 1.40527 4.29739 2.22556 3.26231 3.25988C2.22722 4.2942 1.40632 5.52225 0.846547 6.87382C0.286775 8.22539 -0.000889969 9.67397 2.06828e-06 11.1367V146.357C-0.000889969 147.82 0.286775 149.268 0.846547 150.62C1.40632 151.972 2.22722 153.2 3.26231 154.234C4.29739 155.268 5.52636 156.089 6.87894 156.648C8.23151 157.207 9.68117 157.495 11.145 157.494H187.246C190.202 157.493 193.036 156.319 195.126 154.231C197.216 152.143 198.39 149.31 198.391 146.357V11.1367C198.39 8.18335 197.216 5.3512 195.126 3.26286C193.036 1.17452 190.202 0.000900702 187.246 2.06674e-06ZM7.4775 7.47533C7.9579 6.9926 8.52949 6.61006 9.15908 6.34992C9.78867 6.08977 10.4637 5.9572 11.145 5.95992H187.246C187.926 5.95735 188.6 6.09001 189.229 6.35017C189.857 6.61033 190.428 6.99281 190.907 7.47533C191.876 8.44805 192.423 9.76383 192.427 11.1367V24.5516H5.96436V11.1367C5.96183 10.4568 6.09426 9.78307 6.35399 9.1546C6.61372 8.52613 6.99559 7.95537 7.4775 7.47533ZM190.907 150.018C190.428 150.501 189.857 150.883 189.229 151.144C188.6 151.404 187.926 151.536 187.246 151.534H11.145C10.4643 151.535 9.79002 151.402 9.16087 151.143C8.53172 150.883 7.96007 150.502 7.47874 150.021C6.99741 149.54 6.61585 148.968 6.35598 148.34C6.0961 147.711 5.96301 147.037 5.96436 146.357V30.5115H192.427V146.357C192.423 147.73 191.876 149.046 190.907 150.018V150.018Z" fill="#0A1931"/>
<path d="M90.999 89.9684H110.853C111.644 89.9684 112.403 89.6544 112.962 89.0955C113.521 88.5367 113.835 87.7787 113.835 86.9884C113.835 86.1981 113.521 85.4401 112.962 84.8812C112.403 84.3224 111.644 84.0084 110.853 84.0084H90.999C90.2081 84.0084 89.4496 84.3224 88.8903 84.8812C88.331 85.4401 88.0168 86.1981 88.0168 86.9884C88.0168 87.7787 88.331 88.5367 88.8903 89.0955C89.4496 89.6544 90.2081 89.9684 90.999 89.9684V89.9684Z" fill="#0A1931"/>
<path d="M180.257 84.0084H121.903C121.112 84.0084 120.353 84.3224 119.794 84.8812C119.235 85.4401 118.921 86.1981 118.921 86.9884C118.921 87.7787 119.235 88.5367 119.794 89.0955C120.353 89.6544 121.112 89.9684 121.903 89.9684H180.257C181.048 89.9684 181.807 89.6544 182.366 89.0955C182.925 88.5367 183.239 87.7787 183.239 86.9884C183.239 86.1981 182.925 85.4401 182.366 84.8812C181.807 84.3224 181.048 84.0084 180.257 84.0084Z" fill="#0A1931"/>
<path d="M90.999 105.546H153.564C154.355 105.546 155.113 105.232 155.672 104.673C156.232 104.115 156.546 103.357 156.546 102.566C156.546 101.776 156.232 101.018 155.672 100.459C155.113 99.9002 154.355 99.5863 153.564 99.5863H90.999C90.2081 99.5863 89.4496 99.9002 88.8903 100.459C88.331 101.018 88.0168 101.776 88.0168 102.566C88.0168 103.357 88.331 104.115 88.8903 104.673C89.4496 105.232 90.2081 105.546 90.999 105.546V105.546Z" fill="#0A1931"/>
<path d="M180.257 99.5863H164.596C163.806 99.5863 163.047 99.9002 162.488 100.459C161.928 101.018 161.614 101.776 161.614 102.566C161.614 103.357 161.928 104.115 162.488 104.673C163.047 105.232 163.806 105.546 164.596 105.546H180.257C181.048 105.546 181.807 105.232 182.366 104.673C182.925 104.115 183.239 103.357 183.239 102.566C183.239 101.776 182.925 101.018 182.366 100.459C181.807 99.9002 181.048 99.5863 180.257 99.5863Z" fill="#0A1931"/>
<path d="M90.999 121.124H129.157C129.948 121.124 130.706 120.81 131.265 120.251C131.825 119.692 132.139 118.934 132.139 118.144C132.139 117.354 131.825 116.596 131.265 116.037C130.706 115.478 129.948 115.164 129.157 115.164H90.999C90.2081 115.164 89.4496 115.478 88.8903 116.037C88.331 116.596 88.0168 117.354 88.0168 118.144C88.0168 118.934 88.331 119.692 88.8903 120.251C89.4496 120.81 90.2081 121.124 90.999 121.124V121.124Z" fill="#0A1931"/>
<path d="M180.257 115.168H140.189C139.398 115.168 138.64 115.481 138.08 116.04C137.521 116.599 137.207 117.357 137.207 118.147C137.207 118.938 137.521 119.696 138.08 120.255C138.64 120.813 139.398 121.127 140.189 121.127H180.257C181.048 121.127 181.806 120.813 182.366 120.255C182.925 119.696 183.239 118.938 183.239 118.147C183.239 117.357 182.925 116.599 182.366 116.04C181.806 115.481 181.048 115.168 180.257 115.168Z" fill="#0A1931"/>
<path d="M145.94 130.749H90.9988C90.5989 130.735 90.2004 130.802 89.827 130.946C89.4536 131.089 89.113 131.307 88.8253 131.585C88.5377 131.862 88.309 132.195 88.1527 132.563C87.9965 132.931 87.916 133.327 87.916 133.727C87.916 134.127 87.9965 134.522 88.1527 134.891C88.309 135.259 88.5377 135.591 88.8253 135.869C89.113 136.147 89.4536 136.364 89.827 136.508C90.2004 136.652 90.5989 136.719 90.9988 136.705H145.94C146.34 136.719 146.738 136.652 147.112 136.508C147.485 136.364 147.826 136.147 148.113 135.869C148.401 135.591 148.63 135.259 148.786 134.891C148.942 134.522 149.023 134.127 149.023 133.727C149.023 133.327 148.942 132.931 148.786 132.563C148.63 132.195 148.401 131.862 148.113 131.585C147.826 131.307 147.485 131.089 147.112 130.946C146.738 130.802 146.34 130.735 145.94 130.749V130.749Z" fill="#0A1931"/>
<path d="M180.257 130.749H156.973C156.573 130.735 156.175 130.802 155.801 130.946C155.428 131.089 155.087 131.307 154.8 131.585C154.512 131.862 154.283 132.195 154.127 132.563C153.971 132.931 153.89 133.327 153.89 133.727C153.89 134.127 153.971 134.522 154.127 134.891C154.283 135.259 154.512 135.591 154.8 135.869C155.087 136.147 155.428 136.364 155.801 136.508C156.175 136.652 156.573 136.719 156.973 136.705H180.257C180.657 136.719 181.056 136.652 181.429 136.508C181.802 136.364 182.143 136.147 182.431 135.869C182.718 135.591 182.947 135.259 183.103 134.891C183.259 134.522 183.34 134.127 183.34 133.727C183.34 133.327 183.259 132.931 183.103 132.563C182.947 132.195 182.718 131.862 182.431 131.585C182.143 131.307 181.802 131.089 181.429 130.946C181.056 130.802 180.657 130.735 180.257 130.749V130.749Z" fill="#0A1931"/>
<path d="M17.1533 19.6698H41.7402C42.5311 19.6698 43.2896 19.3558 43.8489 18.797C44.4082 18.2381 44.7223 17.4802 44.7223 16.6898C44.7223 15.8995 44.4082 15.1415 43.8489 14.5827C43.2896 14.0238 42.5311 13.7099 41.7402 13.7099H17.1533C16.7617 13.7099 16.3739 13.7869 16.0121 13.9367C15.6503 14.0865 15.3215 14.306 15.0446 14.5827C14.7677 14.8594 14.548 15.1879 14.3981 15.5494C14.2483 15.911 14.1711 16.2985 14.1711 16.6898C14.1711 17.0812 14.2483 17.4687 14.3981 17.8302C14.548 18.1918 14.7677 18.5203 15.0446 18.797C15.3215 19.0737 15.6503 19.2932 16.0121 19.443C16.3739 19.5927 16.7617 19.6698 17.1533 19.6698V19.6698Z" fill="#0A1931"/>
<path d="M65.7338 44.0587H24.5906C22.3573 44.0587 20.2155 44.9452 18.6363 46.5232C17.0571 48.1012 16.1699 50.2414 16.1699 52.4731V89.8972C16.1775 92.1279 17.065 94.2657 18.6398 95.8469C19.4194 96.6304 20.3467 97.2517 21.3682 97.6747C22.3896 98.0978 23.4849 98.3142 24.5906 98.3116H65.7338C67.9645 98.3071 70.1032 97.4225 71.6846 95.8503C72.4704 95.071 73.0934 94.1434 73.5174 93.1214C73.9414 92.0995 74.158 91.0035 74.1544 89.8972V52.4731C74.1579 51.3684 73.942 50.274 73.5192 49.2532C73.0964 48.2325 72.4751 47.3058 71.6914 46.5267C70.1082 44.9523 67.9674 44.0654 65.7338 44.0587ZM68.1935 89.8972C68.1917 90.5482 67.9319 91.1719 67.4709 91.632C67.0099 92.092 66.3853 92.3508 65.7338 92.3517H24.5906C23.9397 92.3499 23.316 92.0907 22.8557 91.6308C22.3954 91.1709 22.1361 90.5476 22.1343 89.8972V52.4731C22.1343 52.1507 22.1978 51.8316 22.3213 51.5338C22.4447 51.236 22.6256 50.9654 22.8537 50.7375C23.0818 50.5096 23.3526 50.3288 23.6506 50.2054C23.9486 50.0821 24.268 50.0186 24.5906 50.0186H65.7338C66.3866 50.0203 67.0122 50.2799 67.4742 50.7407C67.7025 50.9678 67.8836 51.2378 68.007 51.5351C68.1305 51.8324 68.1938 52.1512 68.1935 52.4731V89.8972Z" fill="#0A1931"/>
<path d="M35.3658 105.648H24.5906C22.3578 105.65 20.2171 106.537 18.6383 108.114C17.0595 109.692 16.1717 111.831 16.1699 114.062V128.979C16.1717 131.21 17.0594 133.35 18.6381 134.928C20.2167 136.506 22.3575 137.394 24.5906 137.397H35.3658C37.598 137.393 39.7377 136.506 41.3161 134.928C42.8945 133.351 43.7829 131.213 43.7864 128.982V114.066C43.7846 111.834 42.897 109.695 41.3183 108.117C39.7396 106.538 37.5988 105.651 35.3658 105.648V105.648ZM37.8221 128.993C37.8212 129.643 37.5621 130.267 37.1017 130.727C36.6412 131.187 36.017 131.446 35.3658 131.447H24.5906C23.9391 131.447 23.3144 131.188 22.8537 130.728C22.3931 130.268 22.1343 129.644 22.1343 128.993V114.076C22.1343 113.425 22.3931 112.801 22.8537 112.34C23.3144 111.88 23.9391 111.621 24.5906 111.621H35.3658C36.0172 111.621 36.642 111.88 37.1027 112.34C37.5633 112.801 37.8221 113.425 37.8221 114.076V128.993Z" fill="#0A1931"/>
<path d="M65.7333 105.648H54.9648C52.7321 105.65 50.5913 106.537 49.0125 108.114C47.4337 109.692 46.546 111.831 46.5442 114.062V128.979C46.546 131.21 47.4336 133.35 49.0123 134.928C50.591 136.506 52.7318 137.394 54.9648 137.397H65.7333C67.9657 137.394 70.106 136.507 71.6846 134.929C73.2632 133.352 74.1512 131.213 74.1539 128.982V114.066C74.153 111.834 73.2657 109.694 71.6868 108.116C70.1079 106.537 67.9666 105.65 65.7333 105.648V105.648ZM68.193 128.993C68.1921 129.644 67.9325 130.268 67.4713 130.728C67.0101 131.189 66.385 131.447 65.7333 131.447H54.9648C54.3137 131.446 53.6894 131.187 53.229 130.727C52.7685 130.267 52.5094 129.643 52.5085 128.993V114.076C52.5085 113.425 52.7673 112.801 53.228 112.34C53.6886 111.88 54.3134 111.621 54.9648 111.621H65.7333C66.385 111.621 67.0101 111.88 67.4713 112.34C67.9325 112.8 68.1921 113.425 68.193 114.076V128.993Z" fill="#0A1931"/>
<path d="M175.989 46.8284H94.3678C91.7404 46.8284 89.2206 47.8714 87.3628 49.7279C85.5049 51.5844 84.4612 54.1023 84.4612 56.7277C84.4612 59.3532 85.5049 61.8711 87.3628 63.7276C89.2206 65.5841 91.7404 66.627 94.3678 66.627H175.989C178.617 66.627 181.136 65.5841 182.994 63.7276C184.852 61.8711 185.896 59.3532 185.896 56.7277C185.896 54.1023 184.852 51.5844 182.994 49.7279C181.136 47.8714 178.617 46.8284 175.989 46.8284V46.8284ZM179.932 56.7277C179.931 57.7726 179.515 58.7744 178.776 59.5135C178.037 60.2526 177.035 60.6687 175.989 60.6705H94.3678C93.3419 60.6404 92.368 60.212 91.6529 59.4762C90.9378 58.7404 90.5378 57.7551 90.5378 56.7294C90.5378 55.7038 90.9378 54.7185 91.6529 53.9827C92.368 53.2468 93.3419 52.8184 94.3678 52.7884H175.989C176.508 52.7875 177.021 52.8887 177.501 53.0862C177.98 53.2838 178.415 53.5737 178.782 53.9396C179.15 54.3054 179.441 54.74 179.64 55.2184C179.839 55.6968 179.941 56.2097 179.942 56.7277H179.932Z" fill="#0A1931"/>
</svg>
