<svg width="152" height="137" viewBox="0 0 152 137" fill="none" xmlns="http://www.w3.org/2000/svg">
<path d="M21.9674 3.56932C19.4633 1.40378 16.2117 0.300155 12.9051 0.493444C9.5984 0.686733 6.49792 2.16167 4.26383 4.60417C2.02974 7.04668 0.838557 10.2638 0.943941 13.5704C1.04933 16.877 2.44294 20.012 4.82804 22.3076L20.3561 37.8142C20.7814 38.238 21.3576 38.476 21.9584 38.476C22.5592 38.476 23.1354 38.238 23.5607 37.8142L39.0965 22.3076C41.4179 19.9986 42.757 16.8835 42.8344 13.6122C42.9118 10.341 41.7215 7.16617 39.5118 4.75027C37.3022 2.33437 34.2439 0.863966 30.975 0.64585C27.7061 0.427733 24.4792 1.47875 21.9674 3.57962V3.56932ZM35.8893 19.094L21.9674 32.999L8.04554 19.094C6.54492 17.5557 5.7113 15.489 5.72515 13.3413C5.739 11.1937 6.59922 9.13787 8.11956 7.61903C9.6399 6.1002 11.698 5.24056 13.8483 5.22625C15.9986 5.21193 18.068 6.04409 19.6084 7.54254L20.3664 8.29959C20.7917 8.72337 21.3679 8.96135 21.9687 8.96135C22.5695 8.96135 23.1457 8.72337 23.571 8.29959L24.3264 7.54254C25.8601 6.01073 27.9402 5.15016 30.1091 5.15016C32.2781 5.15016 34.3582 6.01073 35.8919 7.54254C37.4255 9.07436 38.2872 11.152 38.2872 13.3183C38.2872 15.4846 37.4255 17.5622 35.8919 19.094H35.8893Z" fill="#0A1931"/>
<path d="M39.6328 50.89C39.5654 50.4009 39.3398 49.9472 38.9902 49.598C38.6406 49.2489 38.1864 49.0235 37.6966 48.9562L27.593 47.5657C27.199 47.5114 26.7977 47.5615 26.4294 47.7112C26.061 47.8608 25.7385 48.1045 25.4944 48.418L13.5937 63.7316L12.4826 62.6217C12.272 62.4107 12.0218 62.2432 11.7464 62.1288C11.471 62.0143 11.1758 61.9551 10.8775 61.9547C10.5792 61.9542 10.2837 62.0124 10.0079 62.126C9.73216 62.2395 9.48148 62.4062 9.27022 62.6166C9.05896 62.8269 8.89124 63.0767 8.77665 63.3518C8.66205 63.6269 8.60282 63.9218 8.60234 64.2197C8.60186 64.5177 8.66014 64.8128 8.77385 65.0882C8.88756 65.3637 9.05448 65.614 9.26506 65.825L12.101 68.6575L3.79686 74.9096C3.43272 75.1831 3.15967 75.5599 3.0134 75.9908C2.86713 76.4218 2.85445 76.8867 2.97702 77.325L4.42335 82.5625C4.52895 82.938 4.72959 83.28 5.00594 83.5556C5.28229 83.8312 5.62504 84.031 6.00116 84.1359L11.2451 85.5933C11.703 85.7201 12.1892 85.7001 12.6351 85.5361C13.081 85.372 13.4641 85.0723 13.7304 84.6792L19.5234 76.0813L22.7487 79.3026C23.1736 79.7291 23.7508 79.9695 24.3532 79.9709C24.9557 79.9724 25.534 79.7347 25.961 79.3103C26.388 78.8859 26.6287 78.3094 26.6302 77.7077C26.6316 77.106 26.3937 76.5284 25.9687 76.1019L24.855 74.9895L40.1819 63.0827C40.4956 62.8392 40.7396 62.5176 40.8894 62.1501C41.0391 61.7826 41.0895 61.3822 41.0353 60.9892L39.6328 50.89ZM10.8867 80.7961L8.43749 80.1163L7.73624 77.5979L15.334 71.8943L16.2621 72.8213L10.8867 80.7961ZM21.622 71.763L16.8112 66.958L28.289 52.2342L35.3969 53.2127L36.3766 60.312L21.622 71.763Z" fill="#0A1931"/>
<path d="M35.9281 96.6967H8.00695C7.40614 96.6974 6.83012 96.9361 6.40528 97.3604C5.98044 97.7847 5.74146 98.3601 5.74078 98.9601V119.854C5.73419 122.068 6.28773 124.248 7.35004 126.192C8.41234 128.136 9.949 129.78 11.8174 130.973L18.5695 135.288C19.4378 135.848 20.4462 136.153 21.4796 136.168C22.5131 136.183 23.5299 135.908 24.4141 135.373L31.785 130.955C33.7349 129.776 35.3486 128.117 36.471 126.136C37.5934 124.155 38.1868 121.919 38.1942 119.643V98.9601C38.1935 98.3601 37.9546 97.7847 37.5297 97.3604C37.1049 96.9361 36.5289 96.6974 35.9281 96.6967ZM33.6619 119.64C33.6575 121.136 33.2679 122.605 32.5306 123.907C31.7933 125.209 30.7331 126.3 29.4518 127.074L22.0809 131.488C21.9201 131.586 21.7348 131.636 21.5463 131.634C21.3579 131.631 21.1741 131.575 21.0162 131.472L14.2666 127.149C13.0397 126.367 12.0303 125.289 11.3322 124.013C10.6341 122.738 10.2698 121.307 10.2731 119.854V101.224H33.6619V119.64Z" fill="#0A1931"/>
<path d="M149.613 11.4926H57.6231C57.0223 11.4932 56.4463 11.7319 56.0214 12.1562C55.5966 12.5806 55.3576 13.1559 55.3569 13.756V25.3435C55.3569 25.6407 55.4155 25.935 55.5294 26.2097C55.6433 26.4843 55.8102 26.7338 56.0207 26.944C56.2311 27.1541 56.4809 27.3209 56.7559 27.4346C57.0308 27.5484 57.3255 27.6069 57.6231 27.6069H149.613C149.911 27.6069 150.205 27.5483 150.48 27.4346C150.755 27.3208 151.004 27.154 151.215 26.9438C151.425 26.7336 151.592 26.4841 151.705 26.2095C151.819 25.9349 151.877 25.6406 151.877 25.3435V13.756C151.877 13.1561 151.638 12.5808 151.214 12.1564C150.79 11.732 150.214 11.4932 149.613 11.4926V11.4926ZM59.8944 23.0801V16.022H133.719V23.0801H59.8944ZM147.352 23.0801H138.251V16.022H147.347L147.352 23.0801Z" fill="#0A1931"/>
<path d="M149.613 58.5636H57.6231C57.0221 58.5636 56.4457 58.8021 56.0207 59.2265C55.5957 59.651 55.3569 60.2267 55.3569 60.827V72.4145C55.3576 73.0146 55.5966 73.5899 56.0214 74.0143C56.4463 74.4386 57.0223 74.6773 57.6231 74.6779H149.613C150.214 74.6773 150.79 74.4385 151.214 74.0141C151.638 73.5897 151.877 73.0144 151.877 72.4145V60.827C151.877 60.5299 151.819 60.2356 151.705 59.961C151.592 59.6864 151.425 59.4369 151.215 59.2267C151.004 59.0165 150.755 58.8497 150.48 58.7359C150.205 58.6222 149.911 58.5636 149.613 58.5636ZM59.8944 70.1382V63.0904H98.6256V70.1382H59.8944ZM147.352 70.1382H103.158V63.0904H147.347L147.352 70.1382Z" fill="#0A1931"/>
<path d="M149.613 108.668H57.6231C57.0223 108.669 56.4463 108.907 56.0214 109.332C55.5966 109.756 55.3576 110.331 55.3569 110.931V122.519C55.3576 123.119 55.5966 123.694 56.0214 124.119C56.4463 124.543 57.0223 124.782 57.6231 124.782H149.613C150.214 124.782 150.79 124.543 151.214 124.118C151.638 123.694 151.877 123.119 151.877 122.519V110.931C151.877 110.332 151.638 109.756 151.214 109.332C150.79 108.907 150.214 108.669 149.613 108.668V108.668ZM59.8944 120.255V113.205H133.044V120.255H59.8944ZM147.352 120.255H137.573V113.205H147.347L147.352 120.255Z" fill="#0A1931"/>
</svg>
