<svg width="1434" height="161" viewBox="0 0 1434 161" fill="none" xmlns="http://www.w3.org/2000/svg">
<path d="M1434 128.288L1386 112.288C1338 96.2882 1242 64.2882 1146 37.5882C1050 11.2882 954 -10.7118 858 5.58817C762 21.2882 666 75.2882 570 90.9882C474 107.288 378 85.2882 282 90.9882C186 96.2882 90 128.288 42 144.288L-6 160.288H42C90 160.288 186 160.288 282 160.288C378 160.288 474 160.288 570 160.288C666 160.288 762 160.288 858 160.288C954 160.288 1050 160.288 1146 160.288C1242 160.288 1338 160.288 1386 160.288H1434V128.288Z" fill="#FEDDBE"/>
</svg>
